<svg xmlns="http://www.w3.org/2000/svg" width="171.16" height="25.445" viewBox="0 0 171.16 25.445">
  <path id="Path_30" data-name="Path 30" d="M-73.932-19.005a1.194,1.194,0,0,1,1.19-.805,1.125,1.125,0,0,1,1.155.805L-64.412,0h4.585l-7.98-21c-.84-2.205-2.45-3.045-4.9-3.045-2.485,0-4.1.84-4.97,3.045L-85.972,0h4.55Zm18.095.525V0h3.71V-18.48Zm0-6.965v4.305h3.745v-4.305Zm12.32,6.965c-1.855,0-2.59.7-2.59,2.87V0h3.71V-14.385c0-.35.14-.525.455-.525h9.38V0h3.745V-14.91h4.34c3.885,0,5.565,1.61,5.565,4.515V0h3.745V-10.4c0-5.11-3.08-8.085-9.345-8.085Zm39.375,0c-4.305,0-6.02,2.065-6.02,5.39,0,2.835,1.26,5.39,6.37,5.39H.583c1.855,0,2.625.595,2.625,2.065,0,1.435-.7,2.03-2.415,2.03H-9.952V0H.793c4.34,0,6.055-2.31,6.055-5.6,0-2.87-1.3-5.215-6.4-5.215H-3.9c-2.065,0-2.625-.7-2.625-2,0-1.4.7-2.1,2.415-2.1H6.113v-3.57Zm26.955,1.6c-3.5,0-4.875,1.9-4.875,4.475,0,2.175.975,4.5,5.125,4.5h4.625c3.05,0,3.8,1.6,3.8,3.175,0,1.85-1,3.2-3.525,3.2H18.238V0h9.7c3.65,0,5.075-1.975,5.075-4.675,0-2.3-1.025-4.675-5.375-4.675h-4.6c-2.875,0-3.575-1.525-3.575-3.025,0-1.725.925-2.975,3.3-2.975h8.675v-1.525Zm13.95,4.05v1.375h7.925c2.325,0,3.225,1.225,3.225,2.875V-7.3h-7.65c-3.15,0-4.3,1.275-4.3,3.525,0,2.35,1.25,3.775,4.275,3.775h6.925c1.65,0,2.125-.625,2.125-2.075V-8.6c0-2.4-1.3-4.225-4.6-4.225ZM46.888-1.35h-6.65c-2.05,0-2.9-.95-2.9-2.475,0-1.475.8-2.325,2.95-2.325h7.625v3.825C47.913-1.675,47.638-1.35,46.888-1.35Zm7.125-11.475v1.375h7.925c2.325,0,3.225,1.225,3.225,2.875V-7.3h-7.65c-3.15,0-4.3,1.275-4.3,3.525,0,2.35,1.25,3.775,4.275,3.775h6.925c1.65,0,2.125-.625,2.125-2.075V-8.6c0-2.4-1.3-4.225-4.6-4.225ZM64.138-1.35h-6.65c-2.05,0-2.9-.95-2.9-2.475,0-1.475.8-2.325,2.95-2.325h7.625v3.825C65.163-1.675,64.888-1.35,64.138-1.35Zm10.85-15.525c-3.5,0-4.875,1.9-4.875,4.475,0,2.175.975,4.5,5.125,4.5h4.625c3.05,0,3.8,1.6,3.8,3.175,0,1.85-1,3.2-3.525,3.2H70.413V0h9.7c3.65,0,5.075-1.975,5.075-4.675,0-2.3-1.025-4.675-5.375-4.675h-4.6c-2.875,0-3.575-1.525-3.575-3.025,0-1.725.925-2.975,3.3-2.975h8.675v-1.525Z" transform="translate(85.973 25.445)" fill="#fff" opacity="0.8"/>
</svg>
