<svg xmlns="http://www.w3.org/2000/svg" width="111.865" height="19.006" viewBox="0 0 111.865 19.006">
  <g id="Group_198" data-name="Group 198" transform="translate(-500.63 -169.326)">
    <path id="Path_64" data-name="Path 64" d="M375.825,49.92V54h-9.351c-1.169,0-1.74.624-1.74,1.55,0,.874.489,1.63,2.065,1.63h3.86c5.165,0,6.364,2.8,6.364,5.518,0,3.235-1.712,5.572-6.007,5.572H360.956V64.19h10.193c1.2,0,1.794-.653,1.794-1.6,0-.9-.517-1.712-2.148-1.712h-3.86c-5.083,0-6.306-2.8-6.306-5.463,0-3.181,1.712-5.491,5.98-5.491Z" transform="translate(140 119.732)" fill="#00234c"/>
    <path id="Path_65" data-name="Path 65" d="M538.976,49.92c5.327,0,8.29,3.044,8.29,9.215,0,6.142-2.936,9.132-8.29,9.132h-2.5c-5.355,0-8.29-2.995-8.29-9.132,0-6.171,2.961-9.215,8.29-9.215ZM536.48,54c-3.045,0-4.185,1.468-4.185,5.116,0,3.669,1.141,5.083,4.185,5.083h2.5c3.071,0,4.185-1.414,4.185-5.083,0-3.643-1.114-5.11-4.185-5.11Z" transform="translate(-6.65 119.732)" fill="#00234c"/>
    <path id="Path_66" data-name="Path 66" d="M727.892,49.92V61.581c0,1.414.679,2.609,3.262,2.609h6.686v4.077h-6.958c-5.116,0-7.122-2.8-7.122-6.659V49.92Z" transform="translate(-177.814 119.732)" fill="#00234c"/>
    <path id="Path_67" data-name="Path 67" d="M873.9,49.92V61.934c0,1.386.68,2.256,2.392,2.256h2.773c1.685,0,2.364-.874,2.364-2.256V49.92h4.023V62.284c0,3.942-2.093,5.98-6.061,5.98H875.8c-3.993,0-6.089-2.038-6.089-5.98V49.92Z" transform="translate(-305.551 119.732)" fill="#00234c"/>
    <path id="Path_68" data-name="Path 68" d="M1026.164,65.983h-4.4l5.117-14.759c.815-2.446,2.121-3.913,4.945-3.913,3.126,0,4.648,1.793,4.648,4.484v9.814a.668.668,0,0,0,.653.734.761.761,0,0,0,.706-.517l3.724-10.6c.789-2.446,2.093-3.913,4.919-3.913,3.153,0,4.649,1.793,4.649,4.484V65.983h-4.1V52.013a.653.653,0,0,0-.651-.734.718.718,0,0,0-.68.515L1041.961,62.4c-.789,2.446-2.148,3.913-4.947,3.913-3.1,0-4.649-1.793-4.649-4.484V52.013a.667.667,0,0,0-.651-.734.75.75,0,0,0-.708.515Z" transform="translate(-438.627 122.016)" fill="#00234c"/>
  </g>
</svg>
