<svg xmlns="http://www.w3.org/2000/svg" width="77.417" height="13.153" viewBox="0 0 77.417 13.153">
  <g id="Group_198" data-name="Group 198" transform="translate(-500.63 -169.326)">
    <path id="Path_64" data-name="Path 64" d="M371.146,49.92v2.821h-6.471c-.809,0-1.2.432-1.2,1.073,0,.6.339,1.128,1.429,1.128h2.671c3.575,0,4.4,1.938,4.4,3.819,0,2.239-1.185,3.856-4.158,3.856h-6.963V59.8h7.054c.828,0,1.242-.452,1.242-1.11,0-.621-.358-1.185-1.486-1.185h-2.671c-3.518,0-4.364-1.938-4.364-3.781,0-2.2,1.185-3.8,4.138-3.8Z" transform="translate(140 119.631)" fill="#fff"/>
    <path id="Path_65" data-name="Path 65" d="M535.654,49.92c3.687,0,5.737,2.106,5.737,6.377,0,4.251-2.032,6.32-5.737,6.32h-1.727c-3.706,0-5.737-2.073-5.737-6.32,0-4.271,2.049-6.377,5.737-6.377Zm-1.727,2.821c-2.107,0-2.9,1.016-2.9,3.541s.789,3.518,2.9,3.518h1.727c2.125,0,2.9-.978,2.9-3.518,0-2.521-.771-3.537-2.9-3.537Z" transform="translate(-13.089 119.631)" fill="#fff"/>
    <path id="Path_66" data-name="Path 66" d="M726.619,49.92v8.07c0,.978.47,1.806,2.258,1.806H733.5v2.821h-4.816c-3.541,0-4.929-1.938-4.929-4.608V49.92Z" transform="translate(-191.769 119.631)" fill="#fff"/>
    <path id="Path_67" data-name="Path 67" d="M872.607,49.92v8.314c0,.959.471,1.561,1.655,1.561h1.919c1.166,0,1.636-.6,1.636-1.561V49.92H880.6v8.557c0,2.728-1.448,4.139-4.195,4.139h-2.483c-2.764,0-4.214-1.41-4.214-4.139V49.92Z" transform="translate(-325.114 119.631)" fill="#fff"/>
    <path id="Path_68" data-name="Path 68" d="M1024.808,60.232h-3.048l3.541-10.214c.564-1.693,1.468-2.708,3.422-2.708a2.873,2.873,0,0,1,3.217,3.1V57.2a.462.462,0,0,0,.452.508.527.527,0,0,0,.489-.358l2.577-7.337c.546-1.693,1.448-2.708,3.4-2.708a2.865,2.865,0,0,1,3.217,3.1v9.819h-2.841V50.565a.452.452,0,0,0-.451-.508.5.5,0,0,0-.471.357l-2.577,7.341c-.546,1.693-1.486,2.708-3.423,2.708a2.882,2.882,0,0,1-3.217-3.1v-6.8a.461.461,0,0,0-.451-.508.519.519,0,0,0-.49.357Z" transform="translate(-464.033 122.016)" fill="#fff"/>
  </g>
</svg>
